M48
;DRILL file {PCBnew (2010-03-14)-final} date Sun 04 Nov 2012 01:36:45 PM CST
;FORMAT={-.-/ absolute / metric / decimal}
R,T
VER,1
FMAT,2
METRIC,TZ
TCST,OFF
ICI,OFF
ATC,ON
T1C0.635
T2C0.813
T3C1.016
T4C2.301
T5C3.048
%
M47
G05
M71
T1
X11.760Y27.610
X11.760Y12.370
T2
X6.840Y19.990
X6.840Y17.450
X8.839Y19.990
X8.839Y17.450
X11.760Y33.960
X11.760Y31.420
X15.570Y28.880
X15.570Y25.070
X15.570Y19.990
X15.570Y16.180
X15.570Y13.640
X15.570Y11.100
X20.650Y25.070
X20.650Y19.990
X23.190Y8.560
X23.190Y6.020
X23.190Y3.480
X24.460Y25.070
X24.460Y19.990
X25.730Y28.880
X25.730Y16.180
X25.730Y13.640
X25.730Y11.100
X25.730Y8.560
X28.270Y33.960
X28.270Y28.880
X28.270Y26.340
X28.270Y23.800
X28.270Y21.260
X28.270Y18.720
X28.270Y16.180
X28.270Y13.640
X28.270Y11.100
X28.270Y8.560
X28.270Y6.020
X33.350Y33.960
X35.890Y28.880
X35.890Y26.340
X35.890Y23.800
X35.890Y21.260
X35.890Y18.720
X35.890Y16.180
X35.890Y13.640
X35.890Y11.100
X35.890Y8.560
X35.890Y6.020
X38.430Y8.560
X39.700Y28.880
X39.700Y26.340
X39.700Y23.800
X39.700Y21.260
X39.700Y18.720
X39.700Y16.180
X39.700Y13.640
X40.970Y8.560
X43.510Y6.020
X43.510Y3.480
X47.320Y28.880
X47.320Y26.340
X47.320Y23.800
X47.320Y21.260
X47.320Y18.720
X47.320Y16.180
X47.320Y13.640
X47.320Y11.100
X49.860Y27.610
X49.860Y17.450
X57.480Y11.100
T3
X7.950Y8.560
X7.950Y6.020
X18.110Y8.560
X18.110Y6.020
X52.400Y19.990
X52.400Y17.450
X52.400Y14.910
X54.940Y27.610
X54.940Y25.070
X54.940Y19.990
X54.940Y17.450
X54.940Y14.910
T4
X4.140Y24.719
X4.140Y12.720
T5
X4.001Y33.000
X4.001Y4.001
X55.999Y33.000
X55.999Y4.001
T0
M30
