G04 (created by PCBNEW-RS274X (2010-03-14)-final) date Sun 04 Nov 2012 01:35:52 PM CST*
G01*
G70*
G90*
%MOIN*%
G04 Gerber Fmt 3.4, Leading zero omitted, Abs format*
%FSLAX34Y34*%
G04 APERTURE LIST*
%ADD10C,0.006000*%
%ADD11C,0.015000*%
%ADD12R,0.055000X0.055000*%
%ADD13C,0.055000*%
%ADD14C,0.070000*%
%ADD15R,0.070000X0.070000*%
%ADD16R,0.090000X0.050000*%
%ADD17O,0.090000X0.050000*%
%ADD18C,0.066000*%
%ADD19R,0.060000X0.060000*%
%ADD20C,0.060000*%
%ADD21C,0.150000*%
%ADD22C,0.160000*%
%ADD23C,0.020000*%
%ADD24C,0.040000*%
G04 APERTURE END LIST*
G54D10*
G54D11*
X23622Y14567D02*
X23622Y00000D01*
X00000Y14567D02*
X23622Y14567D01*
X00000Y00000D02*
X00000Y14567D01*
X00000Y00000D02*
X23622Y00000D01*
G54D12*
X04630Y12370D03*
G54D13*
X04630Y13370D03*
X08130Y07870D03*
X06130Y07870D03*
X08130Y09870D03*
X06130Y09870D03*
X13130Y13370D03*
X11130Y13370D03*
G54D14*
X03130Y02370D03*
G54D15*
X07130Y02370D03*
G54D14*
X03130Y03370D03*
G54D15*
X07130Y03370D03*
G54D16*
X15630Y11370D03*
G54D17*
X15630Y10370D03*
X15630Y09370D03*
X15630Y08370D03*
X15630Y07370D03*
X15630Y06370D03*
X15630Y05370D03*
X18630Y05370D03*
X18630Y06370D03*
X18630Y07370D03*
X18630Y08370D03*
X18630Y09370D03*
X18630Y10370D03*
X18630Y11370D03*
G54D16*
X11130Y11370D03*
G54D17*
X11130Y10370D03*
X11130Y09370D03*
X11130Y08370D03*
X11130Y07370D03*
X11130Y06370D03*
X11130Y05370D03*
X11130Y04370D03*
X11130Y03370D03*
X11130Y02370D03*
X14130Y02370D03*
X14130Y03370D03*
X14130Y04370D03*
X14130Y05370D03*
X14130Y06370D03*
X14130Y07370D03*
X14130Y08370D03*
X14130Y09370D03*
X14130Y10370D03*
X14130Y11370D03*
G54D14*
X09630Y09870D03*
X09630Y07870D03*
G54D18*
X09130Y02370D03*
X09130Y01370D03*
X17130Y02370D03*
X17130Y01370D03*
G54D19*
X20630Y07870D03*
G54D20*
X21630Y07870D03*
X20630Y06870D03*
X21630Y06870D03*
X20630Y05870D03*
X21630Y05870D03*
G54D13*
X16130Y03370D03*
X15130Y03370D03*
X09130Y03370D03*
X10130Y03370D03*
G54D20*
X06130Y11370D03*
X10130Y11370D03*
X19630Y06870D03*
X19630Y10870D03*
X22630Y04370D03*
X18630Y04370D03*
X10130Y04370D03*
X06130Y04370D03*
X10130Y06370D03*
X06130Y06370D03*
X06130Y05370D03*
X10130Y05370D03*
G54D19*
X21630Y10870D03*
G54D20*
X21630Y09870D03*
X03480Y06870D03*
X03480Y07870D03*
X02693Y07870D03*
X02693Y06870D03*
G54D21*
X01630Y05008D03*
X01630Y09732D03*
G54D22*
X22047Y12992D03*
X22047Y01575D03*
X01575Y12992D03*
X01575Y01575D03*
G54D20*
X04630Y10870D03*
X04630Y04870D03*
G54D23*
X15630Y11370D02*
X15130Y11370D01*
X12630Y10370D02*
X12630Y08870D01*
X13130Y10870D02*
X12630Y10370D01*
X14630Y10870D02*
X13130Y10870D01*
X15130Y11370D02*
X14630Y10870D01*
X12630Y08870D02*
X12630Y04870D01*
X12130Y04370D02*
X11130Y04370D01*
X12630Y04870D02*
X12130Y04370D01*
X15630Y11370D02*
X16630Y11370D01*
X17630Y10370D02*
X18630Y10370D01*
X16630Y11370D02*
X17630Y10370D01*
X15630Y08370D02*
X16630Y08370D01*
X17630Y07370D02*
X18630Y07370D01*
X16630Y08370D02*
X17630Y07370D01*
X15630Y08370D02*
X15130Y08370D01*
X15130Y08370D02*
X14630Y08870D01*
X14630Y08870D02*
X12630Y08870D01*
G54D24*
X18630Y09370D02*
X20130Y09370D01*
X20630Y08870D02*
X20630Y07870D01*
X20130Y09370D02*
X20630Y08870D01*
X21630Y06870D02*
X22130Y06870D01*
X22630Y06370D02*
X22630Y04370D01*
X22130Y06870D02*
X22630Y06370D01*
G54D23*
X20630Y05870D02*
X17130Y05870D01*
X16630Y06370D02*
X15630Y06370D01*
X17130Y05870D02*
X16630Y06370D01*
G54D24*
X19630Y06870D02*
X20630Y06870D01*
X03130Y03370D02*
X03130Y05370D01*
X02693Y05807D02*
X03130Y05370D01*
X02693Y05807D02*
X02693Y06870D01*
X03130Y03370D02*
X03130Y02370D01*
X06130Y09870D02*
X03630Y09870D01*
X04630Y13370D02*
X11130Y13370D01*
X04630Y13370D02*
X04130Y13370D01*
X03630Y09870D02*
X03630Y10370D01*
X03630Y10370D02*
X03630Y12870D01*
X04130Y13370D02*
X03630Y12870D01*
X02693Y06870D02*
X02630Y06870D01*
X02630Y06870D02*
X01630Y07870D01*
X01630Y07870D02*
X03630Y09870D01*
X06130Y09870D02*
X06130Y07870D01*
X15630Y05370D02*
X16130Y05370D01*
X18630Y02870D02*
X18630Y01370D01*
X16130Y05370D02*
X18630Y02870D01*
X11130Y02370D02*
X11130Y01370D01*
X03130Y02370D02*
X03130Y01870D01*
X03630Y01370D02*
X09130Y01370D01*
X03130Y01870D02*
X03630Y01370D01*
X09130Y01370D02*
X11130Y01370D01*
X11130Y01370D02*
X17130Y01370D01*
X17130Y01370D02*
X18630Y01370D01*
X18630Y01370D02*
X19130Y01370D01*
X19130Y01370D02*
X21630Y03870D01*
X21630Y03870D02*
X21630Y05870D01*
X02693Y07870D02*
X02693Y07933D01*
X05630Y06370D02*
X06130Y06370D01*
X05130Y06870D02*
X05630Y06370D01*
X05130Y07870D02*
X05130Y06870D01*
X04130Y08870D02*
X05130Y07870D01*
X03630Y08870D02*
X04130Y08870D01*
X02693Y07933D02*
X03630Y08870D01*
X06130Y06370D02*
X06630Y06370D01*
X07130Y05870D02*
X07130Y03370D01*
X06630Y06370D02*
X07130Y05870D01*
G54D23*
X16630Y08870D02*
X15130Y08870D01*
X16630Y08870D02*
X17130Y08370D01*
X18630Y08370D02*
X17130Y08370D01*
X14630Y09370D02*
X14130Y09370D01*
X15130Y08870D02*
X14630Y09370D01*
G54D24*
X08130Y07870D02*
X09630Y07870D01*
X09630Y07870D02*
X10130Y07370D01*
X10130Y07370D02*
X11130Y07370D01*
X09130Y03370D02*
X09130Y02370D01*
X03480Y07870D02*
X03630Y07870D01*
X05630Y05370D02*
X06130Y05370D01*
X04630Y06370D02*
X05630Y05370D01*
X04630Y06870D02*
X04630Y06370D01*
X03630Y07870D02*
X04630Y06870D01*
X06130Y05370D02*
X06130Y04370D01*
X06130Y04370D02*
X06130Y02870D01*
X06130Y02870D02*
X06630Y02370D01*
X06630Y02370D02*
X07130Y02370D01*
X10130Y11370D02*
X11130Y11370D01*
X10130Y03370D02*
X11130Y03370D01*
G54D23*
X10130Y04370D02*
X10630Y03870D01*
X13630Y02370D02*
X14130Y02370D01*
X12130Y03870D02*
X13630Y02370D01*
X10630Y03870D02*
X12130Y03870D01*
G54D24*
X18630Y04370D02*
X18630Y05370D01*
G54D23*
X18630Y06370D02*
X18130Y06370D01*
X14630Y07870D02*
X14130Y08370D01*
X16630Y07870D02*
X14630Y07870D01*
X18130Y06370D02*
X16630Y07870D01*
G54D24*
X14130Y07370D02*
X15630Y07370D01*
X14130Y10370D02*
X15630Y10370D01*
X10130Y06370D02*
X11130Y06370D01*
X10130Y05370D02*
X11130Y05370D01*
G54D23*
X19630Y10870D02*
X19630Y10370D01*
X16630Y09370D02*
X15630Y09370D01*
X17130Y09870D02*
X16630Y09370D01*
X19130Y09870D02*
X17130Y09870D01*
X19630Y10370D02*
X19130Y09870D01*
G54D24*
X16130Y03370D02*
X17130Y02370D01*
X14130Y03370D02*
X15130Y03370D01*
X08130Y09870D02*
X09630Y09870D01*
X09630Y09870D02*
X09630Y09370D01*
X10630Y08370D02*
X11130Y08370D01*
X09630Y09370D02*
X10630Y08370D01*
X13130Y13370D02*
X13130Y12370D01*
X06130Y11370D02*
X07130Y12370D01*
X13130Y12370D02*
X14130Y11370D01*
X07130Y12370D02*
X13130Y12370D01*
X14130Y11370D02*
X15630Y12870D01*
X21630Y11370D02*
X20130Y12870D01*
X20130Y12870D02*
X15630Y12870D01*
X21630Y10870D02*
X21630Y11370D01*
X03480Y06870D02*
X03480Y06020D01*
X04630Y10870D02*
X04630Y11370D01*
X03480Y06020D02*
X04630Y04870D01*
X04630Y12370D02*
X04630Y11370D01*
X04630Y11370D02*
X06130Y11370D01*
X21630Y09870D02*
X21630Y07870D01*
X18630Y11370D02*
X19130Y11870D01*
X21130Y09870D02*
X21630Y09870D01*
X20630Y10370D02*
X21130Y09870D01*
X20630Y11370D02*
X20630Y10370D01*
X20130Y11870D02*
X20630Y11370D01*
X19130Y11870D02*
X20130Y11870D01*
M02*
